/* XPM */
static xpm_row_t const n0_xpm[] = {
"42 57 38 1",
" 	c None",
".	c #979797",
"+	c #484848",
"@	c #212121",
"#	c #3D3D3D",
"$	c #4D4D4D",
"%	c #414141",
"&	c #898989",
"*	c #D9D9D9",
"=	c #CECECE",
"-	c #353535",
";	c #5B5B5B",
">	c #C1C1C1",
",	c #FFFFFF",
"'	c #757575",
")	c #101010",
"!	c #B2B2B2",
"~	c #6F6F6F",
"{	c #909090",
"]	c #151515",
"^	c #C8C8C8",
"/	c #000000",
"(	c #DDDDDD",
"_	c #313131",
":	c #9D9D9D",
"<	c #828282",
"[	c #616161",
"}	c #6C6C6C",
"|	c #A0A0A0",
"1	c #545454",
"2	c #282828",
"3	c #AAAAAA",
"4	c #C2C2C2",
"5	c #7B7B7B",
"6	c #292929",
"7	c #BBBBBB",
"8	c #1A1A1A",
"9	c #B8B8B8",
"                .+@#$%@#&*                ",
"             =-;>,,,,,,,=')!              ",
"            %~,,,,,,,,,,,,,{]             ",
"          ^/(,,,,,,,,,,,,,,,,_:           ",
"         :+,,,,,,,,,,,,,,,,,,,<[          ",
"        .},,,,,,,,,,,,,,,,,,,,,|1         ",
"       !;,,,,,,,,,,,,,,,,,,,,,,,:'        ",
"      (2,,,,,,,,,,,,,,,,,,,,,,,,,~3       ",
"      /,,,,,,,,,,,,,*,,,,,,,,,,,,,]       ",
"     }4,,,,,,,,,,5/[<})~,,,,,,,,,,,@      ",
"    (+,,,,,,,,,3)=     *6.,,,,,,,,,{3     ",
"    _,,,,,,,,,''         {;,,,,,,,,,/     ",
"   =~,,,,,,,,&<           |},,,,,,,,3:    ",
"   %,,,,,,,,^1             '!,,,,,,,,/    ",
"   $,,,,,,,,/               /,,,,,,,,{>   ",
"  {4,,,,,,,<7               =[,,,,,,,,+   ",
"  /,,,,,,,,8                 #,,,,,,,,-   ",
"  },,,,,,,.9                 =5,,,,,,,|9  ",
" |9,,,,,,,/                   /,,,,,,, }  ",
" 1,,,,,,,(~                   {^,,,,,,,)  ",
" ),,,,,,,.4                   *5,,,,,,,;  ",
" ;,,,,,,,%                     8,,,,,,,.^ ",
"={,,,,,,,8                     %,,,,,,,>: ",
"3!,,,,,,,[                     <*,,,,,,(5 ",
"{=,,,,,,={                     39,,,,,,,1 ",
"5(,,,,,,!3                     4:,,,,,,,_ ",
"},,,,,,,|>                     *&,,,,,,,2 ",
";,,,,,,,.^                     (5,,,,,,,6 ",
";,,,,,,,.^                      5,,,,,,,6 ",
"[,,,,,,,.^                     (5,,,,,,,2 ",
"~ ,,,,,,|7                     =&,,,,,,,2 ",
"<*,,,,,,93                     >|,,,,,,,% ",
":>,,,,,,=&                     |7,,,,,,,[ ",
"7|,,,,,,,1                     '(,,,,,,=& ",
"(5,,,,,,,)                     _,,,,,,,3! ",
" -,,,,,,,1                     _,,,,,,,5* ",
" 2,,,,,,,|!                   ^&,,,,,,,_  ",
" 5*,,,,,,,1                   5*,,,,,,,-  ",
" >.,,,,,,,2                   /,,,,,,,^{  ",
"  6,,,,,,,!|                 9.,,,,,,,'*  ",
"  $,,,,,,,,/                 ),,,,,,,,/   ",
"  7.,,,,,,,3:               9&,,,,,,,^&   ",
"   /,,,,,,,,)               /,,,,,,,,+    ",
"   {7,,,,,,,,]             -*,,,,,,,,$    ",
"    ),,,,,,,,7+           [|,,,,,,,,;(    ",
"    {!,,,,,,,,!6         +:,,,,,,,,($     ",
"     /,,,,,,,,,*/.     |/=,,,,,,,,,@      ",
"     ^;,,,,,,,,,,9+8-@%3,,,,,,,,,,:.      ",
"      ~!,,,,,,,,,,,,,,,,,,,,,,,,,(2       ",
"       8(,,,,,,,,,,,,,,,,,,,,,,,,/        ",
"        /,,,,,,,,,,,,,,,,,,,,,,,/         ",
"         /(,,,,,,,,,,,,,,,,,,,,/*         ",
"          8!,,,,,,,,,,,,,,,,,*/           ",
"           '$,,,,,,,,,,,,,,,5%            ",
"            *@5,,,,,,,,,,,./7             ",
"              =;@&9=**>{#%9               ",
"                 =3&<&|^                  "};
