/* XPM */
static xpm_row_t const n1_xpm[] = {
"31 58 33 1",
" 	c None",
".	c #B8B8B8",
"+	c #A0A0A0",
"@	c #151515",
"#	c #101010",
"$	c #898989",
"%	c #000000",
"&	c #AAAAAA",
"*	c #FFFFFF",
"=	c #7B7B7B",
"-	c #6C6C6C",
";	c #282828",
">	c #C1C1C1",
",	c #757575",
"'	c #D9D9D9",
")	c #484848",
"!	c #4D4D4D",
"~	c #909090",
"{	c #1A1A1A",
"]	c #616161",
"^	c #3D3D3D",
"/	c #CECECE",
"(	c #353535",
"_	c #313131",
":	c #292929",
"<	c #212121",
"[	c #BBBBBB",
"}	c #B2B2B2",
"|	c #979797",
"1	c #545454",
"2	c #414141",
"3	c #9D9D9D",
"4	c #5B5B5B",
"                   .           ",
"                 +@#           ",
"               $%&*=           ",
"             -;>***,           ",
"          ')!'*****,           ",
"        >;-********,           ",
"      &%$**********,           ",
"    ~%+************,           ",
"  ,{.**************,           ",
"]^/****************,           ",
"(******************,           ",
"^******************,           ",
"_******************,           ",
":******************,           ",
":*********'********,           ",
":*******&<{[*******,           ",
":****/];& }.*******,           ",
"_**|%=    &.*******,           ",
"%12[      &.*******,           ",
"+         &.*******,           ",
"          &.*******,           ",
"          &.*******,           ",
"          &.*******,           ",
"          &.*******,           ",
"          &.*******,           ",
"          &.*******,           ",
"          &.*******,           ",
"          &.*******,           ",
"          &.*******,           ",
"          &.*******,           ",
"          &.*******,           ",
"          &.*******,           ",
"          &.*******,           ",
"          &.*******,           ",
"          &.*******,           ",
"          &.*******,           ",
"          &.*******,           ",
"          &.*******,           ",
"          &.*******,           ",
"          &.*******,           ",
"          &.*******,           ",
"          &.*******,           ",
"          &.*******,           ",
"          &.*******,           ",
"          &.*******,           ",
"          &.*******,           ",
"          &.*******,           ",
"          &.*******,           ",
"          3.*******,'          ",
"%]444444444'*******}44444444]%'",
"_****************************$'",
":****************************$'",
":****************************$'",
":****************************$'",
":****************************$'",
":****************************$'",
"{****************************='",
"-]]]]]]]]]]]]]]]]]]]]]]]]]]]]] "};
