/* XPM */
static xpm_row_t const n2_xpm[] = {
"32 57 37 1",
" 	c None",
".	c #CECECE",
"+	c #AAAAAA",
"@	c #898989",
"#	c #6C6C6C",
"$	c #5B5B5B",
"%	c #B2B2B2",
"&	c #D9D9D9",
"*	c #C2C2C2",
"=	c #757575",
"-	c #1A1A1A",
";	c #484848",
">	c #909090",
",	c #B8B8B8",
"'	c #FFFFFF",
")	c #7B7B7B",
"!	c #545454",
"~	c #BBBBBB",
"{	c #828282",
"]	c #000000",
"^	c #DDDDDD",
"/	c #979797",
"(	c #9D9D9D",
"_	c #616161",
":	c #3D3D3D",
"<	c #C8C8C8",
"[	c #C1C1C1",
"}	c #101010",
"|	c #4D4D4D",
"1	c #313131",
"2	c #292929",
"3	c #282828",
"4	c #212121",
"5	c #A0A0A0",
"6	c #6F6F6F",
"7	c #353535",
"8	c #151515",
"         .+@#$$#@%&             ",
"     *=-;>,&''''.%)-!~          ",
"   {]>^''''''''''''''/](        ",
" _:<'''''''''''''''''''+]<      ",
"#['''''''''''''''''''''''!)     ",
"#'''''''''''''''''''''''''(!    ",
"#''''''''''''''''''''''''''+_   ",
"#''''''''''''''''''''''''''')+  ",
"#''''''''''''''''''''''''''''}  ",
"#'''''''.(=|12:#(^'''''''''''.# ",
"#'''',|3@[      ~#4.''''''''''1 ",
"#''(]/             $)'''''''''%5",
"6~]+                @>'''''''''|",
"#7                   4'''''''''-",
"                     +%''''''''1",
"                     .>''''''''7",
"                     </''''''''3",
"                     5~''''''''3",
"                     |'''''''' #",
"                     7''''''''+%",
"                    @[''''''''7 ",
"                    4'''''''''| ",
"                   4 ''''''''=. ",
"                  )5'''''''''4  ",
"                 ,$'''''''''_.  ",
"                &4'''''''''&!   ",
"                ]'''''''''']    ",
"               ]''''''''''#~    ",
"              4&'''''''''~_     ",
"             |~''''''''''}      ",
"            =/'''''''''']       ",
"           (=''''''''''4&       ",
"          [;''''''''''!,        ",
"         &-''''''''''{>         ",
"         ]''''''''''+_          ",
"        ]''''''''''<:           ",
"       |<''''''''' }            ",
"      5{'''''''''']             ",
"     ^1''''''''''3&             ",
"     ]''''''''''=+              ",
"    !<''''''''',_               ",
"   ~6''''''''' 8                ",
"   ]'''''''''']                 ",
"  #.'''''''''2&                 ",
"  ;''''''''')+                  ",
" ;'''''''''.!                   ",
" ;'''''''''-                    ",
"(~''''''''*]|;;;;;;;;;;;;;;;;;;%",
"#'''''''''''''''''''''''''''''&)",
"#'''''''''''''''''''''''''''''^{",
"#'''''''''''''''''''''''''''''^{",
"#'''''''''''''''''''''''''''''&{",
"#'''''''''''''''''''''''''''''.@",
"#'''''''''''''''''''''''''''''.@",
"#'''''''''''''''''''''''''''''&@",
"#,<<<<<<<<[[[[[[[[[[[[[[[[[,,~>@",
".////////(55555555555555555++++^"};
