/* XPM */
static xpm_row_t const n3_xpm[] = {
"32 57 38 1",
" 	c None",
".	c #CECECE",
"+	c #B2B2B2",
"@	c #A0A0A0",
"#	c #979797",
"$	c #9D9D9D",
"%	c #C8C8C8",
"&	c #898989",
"*	c #3D3D3D",
"=	c #212121",
"-	c #616161",
";	c #909090",
">	c #AAAAAA",
",	c #C1C1C1",
"'	c #C2C2C2",
")	c #101010",
"!	c #BBBBBB",
"~	c #B8B8B8",
"{	c #4D4D4D",
"]	c #FFFFFF",
"^	c #000000",
"/	c #D9D9D9",
"(	c #353535",
"_	c #6C6C6C",
":	c #DDDDDD",
"<	c #828282",
"[	c #7B7B7B",
"}	c #545454",
"|	c #292929",
"1	c #484848",
"2	c #1A1A1A",
"3	c #6F6F6F",
"4	c #5B5B5B",
"5	c #757575",
"6	c #414141",
"7	c #313131",
"8	c #282828",
"9	c #151515",
"          .+@##$+%              ",
"     %&*=-;>,%%'+#-)-!          ",
"  ~{=;.]]]]]]]]]]]]]]#^#        ",
"@^$]]]]]]]]]]]]]]]]]]]]>^/      ",
"(]]]]]]]]]]]]]]]]]]]]]]]](@     ",
"*]]]]]]]]]]]]]]]]]]]]]]]]]_&    ",
"*]]]]]]]]]]]]]]]]]]]]]]]]]]_@   ",
"*]]]]]]]]]]]]]]]]]]]]]]]]]]](:  ",
"*]]]]]]]]:%~++!.]]]]]]]]]]]]])  ",
"*]]]].<=*[$>++@&})[]]]]]]]]]];~ ",
"*]];^<.           .(&]]]]]]]]]| ",
"1&2!                ;3]]]]]]]]{ ",
"<~                   4/]]]]]]]$,",
"                     :5]]]]]]],$",
"                      6]]]]]]].;",
"                      4]]]]]]].;",
"                     !$]]]]]]],$",
"                     1]]]]]]]]#'",
"                    .4]]]]]]]]1 ",
"                    ^]]]]]]]]]7 ",
"                   ^ ]]]]]]]]$+ ",
"                 @)]]]]]]]]]]^  ",
"               $^@]]]]]]]]]]{.  ",
"          .~<|1+]]]]]]]]]]]&&   ",
"       ^45;>.]]]]]]]]]]]]]<3    ",
"       |]]]]]]]]]]]]]]]]]7$     ",
"       |]]]]]]]]]]]]]]][=       ",
"       |]]]]]]]]]]]]][^!        ",
"       |]]]]]]]]]]]]]],7[       ",
"       |]]]]]]]]]]]]]]]],^%     ",
"       |]]]]]]]]]]]]]]]]]]{;    ",
"       ^/./:]]]]]]]]]]]]]]][<   ",
"       +;;&[48|[']]]]]]]]]]]-~  ",
"               /;^;]]]]]]]]]]^  ",
"                  ~^/]]]]]]]]/- ",
"                    9/]]]]]]]]7 ",
"                     ^]]]]]]]]+>",
"                     ~#]]]]]]]]}",
"                      7]]]]]]]]2",
"                      8]]]]]]]]|",
"                      =]]]]]]]]6",
"                      6]]]]]]]]|",
"                     %&]]]]]]]]2",
"                     } ]]]]]]]]1",
"                    %4]]]]]]]]%;",
"                   '9]]]]]]]]]5/",
"^*$              /}-]]]]]]]]]]) ",
"7]!_^4#~%./.%~#-^5 ]]]]]]]]]]#+ ",
"|]]]]]%>#&&&#>%]]]]]]]]]]]]]])  ",
"8]]]]]]]]]]]]]]]]]]]]]]]]]]]=   ",
"|]]]]]]]]]]]]]]]]]]]]]]]]]]{~   ",
"8]]]]]]]]]]]]]]]]]]]]]]]]](+    ",
"|]]]]]]]]]]]]]]]]]]]]]]]'^.     ",
"(]]]]]]]]]]]]]]]]]]]]].75       ",
"<8#/]]]]]]]]]]]]]]]]$93         ",
"  ,[=*[>%/]]] .!#-)-~           ",
"      /~#<3-_5&@'               "};
