/* XPM */
static xpm_row_t const n4_xpm[] = {
"39 57 36 1",
" 	c None",
".	c #DDDDDD",
"+	c #000000",
"@	c #313131",
"#	c #292929",
"$	c #AAAAAA",
"%	c #FFFFFF",
"&	c #C8C8C8",
"*	c #A0A0A0",
"=	c #898989",
"-	c #C1C1C1",
";	c #151515",
">	c #979797",
",	c #212121",
"'	c #CECECE",
")	c #B2B2B2",
"!	c #9D9D9D",
"~	c #BBBBBB",
"{	c #616161",
"]	c #B8B8B8",
"^	c #414141",
"/	c #7B7B7B",
"(	c #1A1A1A",
"_	c #4D4D4D",
":	c #101010",
"<	c #6F6F6F",
"[	c #6C6C6C",
"}	c #D9D9D9",
"|	c #545454",
"1	c #282828",
"2	c #909090",
"3	c #C2C2C2",
"4	c #828282",
"5	c #484848",
"6	c #353535",
"7	c #3D3D3D",
"                    .+@######@+$       ",
"                    +%%%%%%%%%&*       ",
"                   =$%%%%%%%%%-*       ",
"                   @%%%%%%%%%%-*       ",
"                  ;%%%%%%%%%%%-*       ",
"                 >*%%%%%%%%%%%-*       ",
"                 ,%%%%%%%%%%%%-*       ",
"                ,%%%%%%%%%%%%%-*       ",
"               *>%%%%%%%%%%%%%-*       ",
"               ;%%%%%%%%%%%%%%-*       ",
"              @ %%%%%%')%%%%%%-*       ",
"             $=%%%%%%%+!%%%%%%~$       ",
"             +%%%%%%%={*%%%%%%]$       ",
"            ^.%%%%%% ^'!%%%%%%]$       ",
"           ]/%%%%%%%( &!%%%%%%]$       ",
"           +%%%%%%%*> &!%%%%%%]$       ",
"          _'%%%%%%%:  -*%%%%%%]$       ",
"         -<%%%%%%%^.  ~$%%%%%%]$       ",
"         +%%%%%%%~/   ~$%%%%%%]$       ",
"        {&%%%%%%%+    ~$%%%%%%]$       ",
"       &{%%%%%%%[&    ~$%%%%%%]$       ",
"       +%%%%%%%}|     ))%%%%%%]$       ",
"      <-%%%%%%%+      ))%%%%%%]$       ",
"     '_%%%%%%%=$      ))%%%%%%]$       ",
"     +%%%%%%%%#       ))%%%%%%]$       ",
"    /]%%%%%%%1        ))%%%%%%]$       ",
"   .^%%%%%%%$2        $]%%%%%%]$       ",
"   +%%%%%%%%+         $]%%%%%%]$       ",
"  =$%%%%%%%_}         $]%%%%%%]$       ",
"  @%%%%%%%3[          $]%%%%%%]$       ",
" ;%%%%%%%%:           $-%%%%%%])       ",
">*%%%%%%%4#///444222>!|-%%%%%%~+_5555^2",
"{%%%%%%%%%% ..}}}'''&&&%%%%%%%%%%%%%%%6",
"[%%%%%%%%%%%%%%%%%%%%%%%%%%%%%%%%%%%%%7",
"[%%%%%%%%%%%%%%%%%%%%%%%%%%%%%%%%%%%%%7",
"[%%%%%%%%%%%%%%%%%%%%%%%%%%%%%%%%%%%%%7",
"[%%%%%%%%%%%%%%%%%%%%%%%%%%%%%%%%%%%%%7",
"[%%%%%%%%%%%%%%%%%%%%%%%%%%%%%%%%%%%%%7",
"[%%%%%%%%%%%%%%%%%%%%%%%%%%%%%%%%%%%%%7",
"/(#####1##############,}%%%%%%}#@@@@@#5",
"                      $-%%%%%%-*       ",
"                      *-%%%%%%-*       ",
"                      *-%%%%%%-*       ",
"                      *-%%%%%%-*       ",
"                      *-%%%%%%-*       ",
"                      *-%%%%%%-*       ",
"                      *-%%%%%%-*       ",
"                      *-%%%%%%-*       ",
"                      *-%%%%%%-*       ",
"                      *-%%%%%%-*       ",
"                      *-%%%%%%-*       ",
"                      *-%%%%%%-*       ",
"                      *-%%%%%%-*       ",
"                      *-%%%%%%-*       ",
"                      *-%%%%%%-*       ",
"                      *3%%%%%%3!       ",
"                      3@666666@-       "};
