/* XPM */
static xpm_row_t const n5_xpm[] = {
"33 57 38 1",
" 	c None",
".	c #898989",
"+	c #828282",
"@	c #979797",
"#	c #3D3D3D",
"$	c #D9D9D9",
"%	c #101010",
"&	c #545454",
"*	c #FFFFFF",
"=	c #292929",
"-	c #000000",
";	c #282828",
">	c #DDDDDD",
",	c #7B7B7B",
"'	c #CECECE",
")	c #909090",
"!	c #4D4D4D",
"~	c #484848",
"{	c #6F6F6F",
"]	c #AAAAAA",
"^	c #C8C8C8",
"/	c #BBBBBB",
"(	c #1A1A1A",
"_	c #B2B2B2",
":	c #9D9D9D",
"<	c #212121",
"[	c #C2C2C2",
"}	c #313131",
"|	c #5B5B5B",
"1	c #C1C1C1",
"2	c #616161",
"3	c #6C6C6C",
"4	c #B8B8B8",
"5	c #A0A0A0",
"6	c #757575",
"7	c #353535",
"8	c #414141",
"9	c #151515",
" .++++++++++++++++++++++++++++@  ",
" # $$$$$$$$$$$$$$$$$$$$$$$$$$ %  ",
" &****************************=  ",
" &****************************=  ",
" &****************************=  ",
" &****************************=  ",
" &****************************=  ",
" &****************************=  ",
" &********-===========;=======-  ",
" &*******>+                      ",
" &*******>,                      ",
" &*******>,                      ",
" &*******$+                      ",
" &*******$.                      ",
" &*******$.                      ",
" &*******$.                      ",
" &*******$.                      ",
" &*******')                      ",
" !*******'@                      ",
" ~*******'-{,.]^                 ",
" ~**********>'/)!(+$             ",
" ~****************'{%_           ",
" ~*******************:-/         ",
" ~*********************,#        ",
" ~**********************$-$      ",
" ~************************<[     ",
" ~*************************='    ",
" };;=;;=#|,:1***************-    ",
"          >[:2-3[************;   ",
"                )-:**********.4  ",
"                  5-**********%  ",
"                    - ********6$ ",
"                     -********'. ",
"                     /.********7 ",
"                      -********; ",
"                      2********2 ",
"                      +$*******.'",
"                      +>*******@^",
"                      3********@^",
"                      7********+$",
"                      <********2 ",
"                     ^.********( ",
"                     #*********8 ",
"                    46********/: ",
"                   '(*********!  ",
"@-4               .7**********#  ",
":159|]>        ',-_**********3'  ",
":[***_67<}8#;<~.'***********>8   ",
"]/**************************-    ",
"]4*************************#^    ",
"__************************~_     ",
"__***********************%1      ",
"4_*********************:9        ",
"[#'******************_-:         ",
"  +-{/************[{%:           ",
"    >5|(#3.@:),&(8@>             ",
"          $^^'>                  "};
