/* XPM */
static xpm_row_t const n6_xpm[] = {
"36 58 37 1",
" 	c None",
".	c #C8C8C8",
"+	c #B2B2B2",
"@	c #A0A0A0",
"#	c #9D9D9D",
"$	c #B8B8B8",
"%	c #D9D9D9",
"&	c #AAAAAA",
"*	c #545454",
"=	c #151515",
"-	c #616161",
";	c #979797",
">	c #C1C1C1",
",	c #C2C2C2",
"'	c #828282",
")	c #353535",
"!	c #313131",
"~	c #DDDDDD",
"{	c #5B5B5B",
"]	c #FFFFFF",
"^	c #000000",
"/	c #CECECE",
"(	c #909090",
"_	c #7B7B7B",
":	c #292929",
"<	c #282828",
"[	c #6C6C6C",
"}	c #101010",
"|	c #4D4D4D",
"1	c #757575",
"2	c #3D3D3D",
"3	c #1A1A1A",
"4	c #212121",
"5	c #898989",
"6	c #BBBBBB",
"7	c #414141",
"8	c #484848",
"                     .+@#@$%        ",
"                 &*=-;+>,>&')!#     ",
"              ~{!&]]]]]]]]]]]]$^~   ",
"             ** ]]]]]]]]]]]]]]];/   ",
"           &^%]]]]]]]]]]]]]]]]](/   ",
"          {_]]]]]]]]]]]]]]]]]]](/   ",
"         :$]]]]]]]]]]]]]]]]]]]](/   ",
"        <.]]]]]]]]]]]]]~.,/ ]]](/   ",
"       *$]]]]]]]]]]>[}|_;#(123'[/   ",
"      @']]]]]]]]]&^(          %[~   ",
"      4]]]]]]]]]4;                  ",
"     !]]]]]]]] ^                    ",
"    >_]]]]]]]]^                     ",
"    }]]]]]]]]^                      ",
"   .']]]]]]]*/                      ",
"   |]]]]]]].[                       ",
"   2]]]]]]]^                        ",
"  &&]]]]]]$(                        ",
"  |]]]]]]]4                         ",
"  4]]]]]]~-                         ",
" %']]]]]]5/                         ",
" @6]]]]]]=        %%%               ",
" -]]]]]]]*   %_4)['55[<2&           ",
" 3]]]]]]># ~:[/]]]]]]]]]+='         ",
" 2]]]]]]#/;2]]]]]]]]]]]]]]$^%       ",
" 1]]]]]](:5]]]]]]]]]]]]]]]]]!+      ",
" #]]]]]]6(]]]]]]]]]]]]]]]]]]]|+     ",
" 6]]]]]]]]]]]]]]]]]]]]]]]]]]]])/    ",
" %]]]]]]]]]]]]]]]]]]]]]]]]]]]]]^    ",
" ]]]]]]]]]]]]]]>{3:<:(]]]]]]]]].[   ",
" ]]]]]]]]]]]] =5     ,4(]]]]]]]]7   ",
" ]]]]]]]]]]]/}         #7]]]]]]]%[  ",
" ]]]]]]]]]] =           ${]]]]]]]4  ",
" ]]]]]]]]]]^             16]]]]]]@  ",
" ]]]]]]]]]&@              ^]]]]]]   ",
" ]]]]]]]]]=               ;>]]]]]]  ",
" ]]]]]]]] -                -]]]]]]  ",
" /]]]]]]]+&                3]]]]]]  ",
" &]]]]]]](/                )]]]]]]  ",
" _]]]]]]]5%                8]]]]]]  ",
" !]]]]]]](/                )]]]]]]  ",
" !]]]]]]]++                3]]]]]]  ",
" 5/]]]]]] [                -]]]]]]  ",
" /']]]]]]]}               ;6]]]]]]  ",
"  ^]]]]]]]@&              ^]]]]]]%  ",
"  '/]]]]]]]^             '+]]]]]]5  ",
"   |]]]]]]]~4           >|]]]]]]]^  ",
"   8 ]]]]]]].4         &)]]]]]]],5  ",
"    8]]]]]]]]~^;     /)']]]]]]]]3   ",
"    [,]]]]]]]]]$837!4']]]]]]]]]+5   ",
"     ^]]]]]]]]]]]]]]]]]]]]]]]]]^    ",
"     ~3]]]]]]]]]]]]]]]]]]]]]]]:~    ",
"      >)]]]]]]]]]]]]]]]]]]]]]{+     ",
"       >3]]]]]]]]]]]]]]]]]]]|@      ",
"        ~^>]]]]]]]]]]]]]]] }6       ",
"          _<6]]]]]]]]]]]~[2         ",
"            ;3*#>%~~/+_}[%          ",
"                                    "};
