/* XPM */
static xpm_row_t const n7_xpm[] = {
"36 57 38 1",
" 	c None",
".	c #6C6C6C",
"+	c #C2C2C2",
"@	c #616161",
"#	c #FFFFFF",
"$	c #C1C1C1",
"%	c #898989",
"&	c #6F6F6F",
"*	c #D9D9D9",
"=	c #414141",
"-	c #B8B8B8",
";	c #AAAAAA",
">	c #B2B2B2",
",	c #CECECE",
"'	c #828282",
")	c #A0A0A0",
"!	c #3D3D3D",
"~	c #DDDDDD",
"{	c #101010",
"]	c #000000",
"^	c #9D9D9D",
"/	c #7B7B7B",
"(	c #353535",
"_	c #282828",
":	c #C8C8C8",
"<	c #757575",
"[	c #979797",
"}	c #212121",
"|	c #BBBBBB",
"1	c #909090",
"2	c #4D4D4D",
"3	c #292929",
"4	c #5B5B5B",
"5	c #1A1A1A",
"6	c #545454",
"7	c #484848",
"8	c #313131",
"9	c #151515",
"...................................+",
"@#################################$%",
"&#################################*%",
"&#################################*%",
"&#################################*%",
"&#################################*%",
"&#################################*%",
"&#################################*%",
"=+$$$$$-------------;;;;>,########*'",
")))))));;;;;;;;;;;;;---$!)########!~",
"                        =########-' ",
"                       {#########]  ",
"                      ;^########/$  ",
"                      ]#########(   ",
"                     /$########(    ",
"                     _########:<    ",
"                    .*########]     ",
"                    !########;[     ",
"                   @~########]      ",
"                   =########[;      ",
"                  @*########]       ",
"                  (########%-       ",
"                 <,########{        ",
"                 }########%|        ",
"                %|########]         ",
"                ]########[-         ",
"               ;)########]          ",
"               ]########;;          ",
"              :'########]           ",
"              =########|1           ",
"              2########3            ",
"             /,#######~@            ",
"             ]########@~            ",
"            >^########_             ",
"            3########^>             ",
"            4########{              ",
"           ',#######,/              ",
"           ]########@~              ",
"          +1########5               ",
"          6########>)               ",
"          3########=                ",
"         >;########!                ",
"         =########;;                ",
"         !########!                 ",
"        ;;########!                 ",
"        7########>;                 ",
"        8########4                  ",
"       |^########5                  ",
"       . #######,'                  ",
"       {########%:                  ",
"      ~<########8                   ",
"      )|########(                   ",
"      2########:1                   ",
"      9########1:                   ",
"      <########7                    ",
"     >4;))))));9                    ",
"      $$$$$$$$|*                    "};
