/* XPM */
static xpm_row_t const n8_xpm[] = {
"37 60 38 1",
" 	c None",
".	c #C2C2C2",
"+	c #AAAAAA",
"@	c #9D9D9D",
"#	c #979797",
"$	c #A0A0A0",
"%	c #B8B8B8",
"&	c #D9D9D9",
"*	c #B2B2B2",
"=	c #4D4D4D",
"-	c #101010",
";	c #6C6C6C",
">	c #CECECE",
",	c #C1C1C1",
"'	c #828282",
")	c #3D3D3D",
"!	c #292929",
"~	c #898989",
"{	c #FFFFFF",
"]	c #BBBBBB",
"^	c #414141",
"/	c #545454",
"(	c #C8C8C8",
"_	c #000000",
":	c #353535",
"<	c #1A1A1A",
"[	c #DDDDDD",
"}	c #7B7B7B",
"|	c #909090",
"1	c #313131",
"2	c #484848",
"3	c #212121",
"4	c #757575",
"5	c #151515",
"6	c #616161",
"7	c #5B5B5B",
"8	c #6F6F6F",
"9	c #282828",
"               .+@#$%&               ",
"           *=-;#*.>,+')!#            ",
"         ~-${{{{{{{{{{{{]^/          ",
"       (_]{{{{{{{{{{{{{{{{ :'        ",
"      @={{{{{{{{{{{{{{{{{{{{+<       ",
"     $;{{{{{{{{{{{{{{{{{{{{{{[_      ",
"    &:{{{{{{{{{{{{{{{{{{{{{{{{ _     ",
"    -{{{{{{{{{{.#'}|* {{{{{{{{{,;    ",
"   ,~{{{{{{{&=1#([[>+;_${{{{{{{{2    ",
"   ={{{{{{{}/          +_{{{{{{{>}   ",
"   3{{{{{{@'             _{{{{{{{-   ",
"  [4{{{{{{_              >;{{{{{{2   ",
"  .@{{{{{(|               <{{{{{{4   ",
"  *+{{{{{**               /{{{{{{'[  ",
"  %+{{{{{]$               5{{{{{{}[  ",
"  >|{{{{{{/              [6{{{{{{7   ",
"   /{{{{{{)              1{{{{{{{5   ",
"   -{{{{{{ 1            ||{{{{{{{7   ",
"   ~({{{{{{$;          +/{{{{{{{~,   ",
"    ){{{{{{{|6        |7{{{{{{{{_    ",
"    6>{{{{{{{*3      =~{{{{{{{{8.    ",
"     _{{{{{{{{ _+  *_>{{{{{{{{>=     ",
"     %6{{{{{{{{{#--#{{{{{{{{{{_      ",
"      }#{{{{{{{{{{{{{{{{{{{{{_       ",
"       6|{{{{{{{{{{{{{{{{{{ _        ",
"        '6{{{{{{{{{{{{{{{{+<         ",
"         ~;{{{{{{{{{{{{{{7}          ",
"        *:{{{{{{{{{{{{{{{ -          ",
"       @/{{{{{{{{{{{{{{{{{{_&        ",
"      $6{{{{{{{{{{{{{{{{{{{{3%       ",
"     ,2{{{{{{{{{{]{{{{{{{{{{{=@      ",
"     -{{{{{{{{{{=}5*{{{{{{{{{{6$     ",
"    _{{{{{{{{{{_>  '^{{{{{{{{{{^(    ",
"   ~*{{{{{{{{&_     &_>{{{{{{{{{_    ",
"   9{{{{{{{{>-        :${{{{{{{{[^   ",
"  6&{{{{{{{ _          ;|{{{{{{{{4(  ",
"  1{{{{{{{{_            6*{{{{{{{{3  ",
" @%{{{{{{{/>             3 {{{{{{{8& ",
" !{{{{{{{>6               <{{{{{{{&} ",
" ){{{{{{{^                ~]{{{{{{{5 ",
">~{{{{{{{2                 ){{{{{{{= ",
"%+{{{{{{*+                 :{{{{{{{'&",
"+%{{{{{{~&                 }[{{{{{{#(",
"+%{{{{{{4                  '&{{{{{{#(",
",${{{{{{~>                 6{{{{{{{~>",
"[4{{{{{{]@                 _{{{{{{{; ",
" <{{{{{{{_                ]|{{{{{{{3 ",
" /{{{{{{{+'               _{{{{{{{{) ",
" ,|{{{{{{{7$             ^({{{{{{{*$ ",
"  _{{{{{{{{;;           1*{{{{{{{{9  ",
"  %~{{{{{{{{._~[     [}5[{{{{{{{{>4  ",
"   1 {{{{{{{{{(439:934>{{{{{{{{{{_   ",
"    _{{{{{{{{{{{{{{{{{{{{{{{{{{{7]   ",
"    &-{{{{{{{{{{{{{{{{{{{{{{{{{}~    ",
"     >_{{{{{{{{{{{{{{{{{{{{{{{6~     ",
"       _+{{{{{{{{{{{{{{{{{{{[_%      ",
"        |-%{{{{{{{{{{{{{{{{62        ",
"          #_4({{{{{{{{{{%22&         ",
"            &~:36'||'7<2$            ",
"                 &>>&                "};
