/* XPM */
static xpm_row_t const n9_xpm[] = {
"36 58 38 1",
" 	c None",
".	c #D9D9D9",
"+	c #C1C1C1",
"@	c #B2B2B2",
"#	c #BBBBBB",
"$	c #CECECE",
"%	c #979797",
"&	c #313131",
"*	c #353535",
"=	c #7B7B7B",
"-	c #A0A0A0",
";	c #AAAAAA",
">	c #898989",
",	c #545454",
"'	c #101010",
")	c #757575",
"!	c #FFFFFF",
"~	c #1A1A1A",
"{	c #C8C8C8",
"]	c #000000",
"^	c #6C6C6C",
"/	c #B8B8B8",
"(	c #3D3D3D",
"_	c #4D4D4D",
":	c #616161",
"<	c #282828",
"[	c #212121",
"}	c #6F6F6F",
"|	c #828282",
"1	c #5B5B5B",
"2	c #9D9D9D",
"3	c #414141",
"4	c #484848",
"5	c #DDDDDD",
"6	c #909090",
"7	c #292929",
"8	c #C2C2C2",
"9	c #151515",
"              .+@@#$                ",
"           %&*=-@@;>,')$            ",
"         )&#!!!!!!!!!!.)~{          ",
"       .]{!!!!!!!!!!!!!!!^,         ",
"      /&!!!!!!!!!!!!!!!!!!{]        ",
"     +(!!!!!!!!!!!!!!!!!!!!!]       ",
"     ~!!!!!!!!!!!!!!!!!!!!!!!]      ",
"    ]!!!!!!!!!!!!!!!!!!!!!!!!{_     ",
"   >@!!!!!!!!!;:<<_%!!!!!!!!!!)#    ",
"   [!!!!!!!!;];    +(}!!!!!!!!!]    ",
"  |{!!!!!!!,>        +]!!!!!!!!@%   ",
"  ]!!!!!!!1@           ]!!!!!!!!]   ",
" +%!!!!!!@=            {1!!!!!!!2/  ",
" ^ !!!!!!]              1.!!!!!!!3  ",
" '!!!!!!@-               1!!!!!!!*  ",
" _!!!!!!4                [!!!!!!!-/ ",
".|!!!!!![                |.!!!!!!5) ",
"{2!!!!!!1                ;@!!!!!!!~ ",
"#;!!!!! )                /;!!!!!!!( ",
"+-!!!!!!^                @@!!!!!!!|.",
"$6!!!!!!*                %{!!!!!!!;@",
" }!!!!!!<                4!!!!!!!!{%",
" &!!!!!!6{               7!!!!!!!!5=",
" &!!!!!!!*              %@!!!!!!!!!^",
" >{!!!!!!)8             ]!!!!!!!!!!:",
" 5^!!!!!!!]            [5!!!!!!!!!!:",
"  ~!!!!!!!!]          &+!!!!!!!!!!!^",
"  /6!!!!!!!!7>      @].!!!!!!!!!!! =",
"   '!!!!!!!!!+3&})4~2!!!!!!!!!!!!!$>",
"   .3!!!!!!!!!!!! !!!!!!!!!!!!!!!!#-",
"    >%!!!!!!!!!!!!!!!!!!!!!!!!!!!!-#",
"     _@!!!!!!!!!!!!!!!!!!!; !!!!!!|.",
"      _6!!!!!!!!!!!!!!!!!-]@!!!!!!, ",
"       6(!!!!!!!!!!!!!!!:=//!!!!!!~ ",
"        5<) !!!!!!!!!!%]8 |.!!!!!!( ",
"          $:9)-/#@2)[4/   *!!!!!!.| ",
"             5#;;@+5      *!!!!!!;/ ",
"                         #%!!!!!!:  ",
"                         _!!!!!!!]  ",
"                         *!!!!!! ^  ",
"                        |8!!!!!!%#  ",
"                        9!!!!!!!~   ",
"                       :$!!!!!! :   ",
"                      $,!!!!!!!)$   ",
"                      ]!!!!!!!![    ",
"                     ] !!!!!!!){    ",
"                    ].!!!!!!!!*     ",
"                  @]!!!!!!!!![      ",
"   .;           /~>!!!!!!!!!>-      ",
"   @1&(|;+{+;|(72!!!!!!!!!!+_       ",
"   @/!!$/-2-/$!!!!!!!!!!!!$~        ",
"   @@!!!!!!!!!!!!!!!!!!!!{9         ",
"   @@!!!!!!!!!!!!!!!!!!!%3          ",
"   @@!!!!!!!!!!!!!!!!!!*6           ",
"   @@!!!!!!!!!!!!!!!!|<             ",
"   /,!!!!!!!!!!!!!$:<8              ",
"    {,[|/.!!!.#%_9>5                ",
"       .;>^:^|-{                    "};
