/* XPM */
static xpm_row_t const s_xpm[] = {
"37 45 191 2",
"  	c None",
". 	c #868686",
"+ 	c #808080",
"@ 	c #7B7B7B",
"# 	c #7E7E7E",
"$ 	c #7C7C7C",
"% 	c #898989",
"& 	c #4A4448",
"* 	c #B5B4B5",
"= 	c #D3D2D3",
"- 	c #DDDDDD",
"; 	c #E9E9E9",
"> 	c #F3F3F3",
", 	c #F8F8F8",
"' 	c #FCFCFC",
") 	c #FEFEFE",
"! 	c #FDFDFD",
"~ 	c #FAFAFA",
"{ 	c #F7F7F7",
"] 	c #F0EFF0",
"^ 	c #E4E4E4",
"/ 	c #DBDADA",
"( 	c #CECECE",
"_ 	c #A7A6A7",
": 	c #000000",
"< 	c #5A5959",
"[ 	c #C7C6C6",
"} 	c #FAF9FA",
"| 	c #AFAEAF",
"1 	c #3E3C3C",
"2 	c #ABA9AA",
"3 	c #F3F2F2",
"4 	c #FFFFFF",
"5 	c #EBEBEC",
"6 	c #A19FA0",
"7 	c #D0D0D0",
"8 	c #FEFDFD",
"9 	c #FEFFFF",
"0 	c #FDFCFD",
"a 	c #B6B4B5",
"b 	c #B8B7B8",
"c 	c #A7A7A7",
"d 	c #A7A6A6",
"e 	c #DEDDDE",
"f 	c #C2C1C1",
"g 	c #BFBFBF",
"h 	c #C0C0C0",
"i 	c #C4C3C4",
"j 	c #E8E8E8",
"k 	c #868585",
"l 	c #666565",
"m 	c #F1F1F1",
"n 	c #E8E9E8",
"o 	c #656364",
"p 	c #959595",
"q 	c #BBBBBB",
"r 	c #A5A4A4",
"s 	c #1C1217",
"t 	c #9C9C9C",
"u 	c #EBEBEB",
"v 	c #3C3C3C",
"w 	c #C3C2C3",
"x 	c #9D9C9D",
"y 	c #DBDBDB",
"z 	c #545454",
"A 	c #E0E0E0",
"B 	c #F9F9F9",
"C 	c #3B3838",
"D 	c #888788",
"E 	c #848585",
"F 	c #434343",
"G 	c #FEFFFE",
"H 	c #F7F6F6",
"I 	c #110407",
"J 	c #A6A6A6",
"K 	c #1F1F1F",
"L 	c #FBFBFB",
"M 	c #413C3A",
"N 	c #F0EFEF",
"O 	c #F6F6F6",
"P 	c #A5A4A3",
"Q 	c #222222",
"R 	c #FAFAFB",
"S 	c #727272",
"T 	c #3C3C3D",
"U 	c #DEDEDE",
"V 	c #F8F9F9",
"W 	c #BCBCBC",
"X 	c #FCFBFB",
"Y 	c #CCCCCC",
"Z 	c #747373",
"` 	c #9D9D9D",
" .	c #D5D4D4",
"..	c #7A7878",
"+.	c #E5E5E5",
"@.	c #E6E6E6",
"#.	c #BBBABA",
"$.	c #A2A1A1",
"%.	c #656363",
"&.	c #EEEEEE",
"*.	c #CDCCCC",
"=.	c #6A6868",
"-.	c #868485",
";.	c #E2E3E3",
">.	c #9B9B9B",
",.	c #797979",
"'.	c #8B8A8B",
").	c #E4E3E3",
"!.	c #D5D5D5",
"~.	c #9E9E9E",
"{.	c #363535",
"].	c #B8B7B7",
"^.	c #5B5A5A",
"/.	c #777777",
"(.	c #CACACA",
"_.	c #E7E7E7",
":.	c #F9F8F8",
"<.	c #A9A8A8",
"[.	c #878686",
"}.	c #C9C8C9",
"|.	c #FDFEFE",
"1.	c #BCBCBB",
"2.	c #9E9D9D",
"3.	c #DCDBDC",
"4.	c #F0F0F0",
"5.	c #9A9A9A",
"6.	c #9F9E9E",
"7.	c #B4B4B4",
"8.	c #E2E2E2",
"9.	c #FBFCFC",
"0.	c #6F6D6E",
"a.	c #868486",
"b.	c #ECEBEC",
"c.	c #C6C6C6",
"d.	c #DBDADB",
"e.	c #878787",
"f.	c #EAE9EA",
"g.	c #7A7979",
"h.	c #7F7F7F",
"i.	c #7F7E7F",
"j.	c #807F80",
"k.	c #302E2F",
"l.	c #C8C8C8",
"m.	c #787877",
"n.	c #F5F5F5",
"o.	c #999899",
"p.	c #6F6F6F",
"q.	c #F1F0F0",
"r.	c #191114",
"s.	c #959495",
"t.	c #737373",
"u.	c #5B5959",
"v.	c #A8A7A7",
"w.	c #9D9C9C",
"x.	c #272324",
"y.	c #555454",
"z.	c #BCBABB",
"A.	c #C5C4C5",
"B.	c #989898",
"C.	c #D9DADA",
"D.	c #CDCDCD",
"E.	c #494848",
"F.	c #5A5A5A",
"G.	c #E9E7E8",
"H.	c #FEFDFE",
"I.	c #DCDCDC",
"J.	c #C2C2C2",
"K.	c #C0BFC0",
"L.	c #C3C2C2",
"M.	c #C1C1C1",
"N.	c #686768",
"O.	c #D6D5D5",
"P.	c #A3A2A2",
"Q.	c #F8F7F8",
"R.	c #B1AFB0",
"S.	c #B5B5B5",
"T.	c #D3D3D3",
"U.	c #8F8E8F",
"V.	c #515051",
"W.	c #CFCFCF",
"X.	c #FDFCFC",
"Y.	c #797878",
"Z.	c #6E6C6D",
"`.	c #B8B6B7",
" +	c #D4D3D3",
".+	c #F8F8F7",
"++	c #FFFEFE",
"@+	c #D4D3D4",
"#+	c #BABABA",
"$+	c #7C7B7B",
"%+	c #7D7C7C",
"                              . + @ # $ $ %                               ",
"                    & * = - ; > , ' ) ! ~ { ] ^ / ( _ :                   ",
"                < [ ) ) ) ) ) ) ) ) ) ) ) ) ) ) ) ) ) } | 1               ",
"              2 3 4 ) ) ) ) ) ) ) ) ) ) ) ) ) ) ) ) ) ) 4 5 6             ",
"            7 8 ) ) ) ) ) ) ) ) ) ) ) ) ) ) ) ) ) ) ) ) ) 9 0 a           ",
"          b 4 ) ) ) ) ) ) ) ) ) 4 4 4 4 4 4 ) ) ) ) ) ) ) ) ) 4 c         ",
"        d 4 ) ) ) ) ) ) ) ) 4 4 e f g h i j 4 ) ) ) ) ) ) ) ) ) { k       ",
"      l m ) ) ) ) ) ) ) ) 4 n o             p ~ ) ) ) ) ) ) ) ) 4 q       ",
"      r ' ) ) ) ) ) ) ) ) - s                 t ! ) ) ) ) ) ) ) ) u v     ",
"      w 4 ) ) ) ) ) ) ) ' x                     y 4 ) ) ) ) ) ) ) 4 z     ",
"      A 4 ) ) ) ) ) ) ) B C                     D 4 ) ) ) ) ) ) ) 4 E     ",
"    F m ) ) ) ) ) ) ) G H                       I 4 4 4 4 4 4 4 4 4 J     ",
"    K , ) ) ) ) ) ) ) ) L :                     M N H O O O O O O L P     ",
"    Q , ) ) ) ) ) ) ) ) R S                                               ",
"    T ] ) ) ) ) ) ) ) ) ! a                                               ",
"      U 4 ) ) ) ) ) ) ) ) V %                                             ",
"      W 4 ) ) ) ) ) ) ) ) 4 X Y Z                                         ",
"      ` ~ ) ) ) ) ) ) ) ) ) ) ) 4  ...                                    ",
"        +.4 ) ) ) ) ) ) ) ) ) ) ) 4 4 @.#.$.                              ",
"        %.' 4 ) ) ) ) ) ) ) ) ) ) ) ) 4 4 B &.*.=.                        ",
"          -.O 4 ) ) ) ) ) ) ) ) ) ) ) ) ) ) ) 4 4 ;.>.,.                  ",
"            '.).4 ) ) ) ) ) ) ) ) ) ) ) ) ) ) ) ) 4 4 m !.~.              ",
"              {.].' ) ) ) ) ) ) ) ) ) ) ) ) ) ) ) ) ) ) ) ) - ^.          ",
"                  /.(._.4 4 ) ) ) ) ) ) ) ) ) ) ) ) ) ) ) ) 4 :.<.        ",
"                        [.}.|.4 4 ) ) ) ) ) ) ) ) ) ) ) ) ) ) ) ! 1.      ",
"                            : 2.3.4., 4 4 ) ) ) ) ) ) ) ) ) ) ) ) 4 5.    ",
"                                    6.7.8.4 4 ) ) ) ) ) ) ) ) ) ) G 9.0.  ",
"                                          a.b.4 ) ) ) ) ) ) ) ) ) ) ) c.  ",
"                                              7.L ) ) ) ) ) ) ) ) ) ) d.  ",
"                                                e.4 ) ) ) ) ) ) ) ) ) f.  ",
"    g.h.i.i.i.i.i.i.i.j.k.                        l.4 ) ) ) ) ) ) ) ) ] m.",
"    n.4 4 4 4 4 4 4 4 4 :                         o.) ) ) ) ) ) ) ) ) > p.",
"    q.4 ) ) ) ) ) ) ) 4 r.                        s.~ ) ) ) ) ) ) ) ) 4.t.",
"    @.4 ) ) ) ) ) ) ) 4 u.                        s.~ ) ) ) ) ) ) ) ) f.# ",
"    !.4 ) ) ) ) ) ) ) 4 v.                        w.4 ) ) ) ) ) ) ) ) -   ",
"    v.4 ) ) ) ) ) ) ) 4 &.                      x.3.4 ) ) ) ) ) ) ) ) Y   ",
"    y.4 ) ) ) ) ) ) ) ) ) z.                    A.4 ) ) ) ) ) ) ) ) 4 B.  ",
"      C.4 ) ) ) ) ) ) ) ) 4 D.E.            F.U ) ) ) ) ) ) ) ) ) 4 G.    ",
"      2.! ) ) ) ) ) ) ) ) ) 4 H.I.J.K.L.M.U 4 4 ) ) ) ) ) ) ) ) G H N.    ",
"        O.4 ) ) ) ) ) ) ) ) ) ) 4 4 4 4 4 4 ) ) ) ) ) ) ) ) ) ) 0 P.      ",
"        : I.) ) ) ) ) ) ) ) ) ) ) ) ) ) ) ) ) ) ) ) ) ) ) ) 4 Q.R.        ",
"            S.! 4 ) ) ) ) ) ) ) ) ) ) ) ) ) ) ) ) ) ) ) 4 4 T.U.          ",
"              V.W.X.) ) ) ) ) ) ) ) ) ) ) ) ) ) ) ) ) ) A Y.              ",
"                  Z.`. +y _.m .+~ ! ++! ~ { 4.@.y @+#+..                  ",
"                              [.$+%+# $+%+e.                              "};
