/* XPM */
static xpm_row_t const asteroid_xpm[] = {
"45 38 444 2",
"  	c None",
". 	c #363838",
"+ 	c #403E3C",
"@ 	c #3F3C3C",
"# 	c #3B3B3A",
"$ 	c #3C3E3F",
"% 	c #3E3D3C",
"& 	c #413D3B",
"* 	c #3E3B3B",
"= 	c #353839",
"- 	c #393C3D",
"; 	c #3E4041",
"> 	c #3B3D3E",
", 	c #35383A",
"' 	c #333638",
") 	c #323537",
"! 	c #2F3437",
"~ 	c #39393A",
"{ 	c #524943",
"] 	c #534942",
"^ 	c #47413E",
"/ 	c #44403E",
"( 	c #3C3B3B",
"_ 	c #38393B",
": 	c #434444",
"< 	c #1C2E33",
"[ 	c #403F3F",
"} 	c #594D48",
"| 	c #69564E",
"1 	c #705B51",
"2 	c #6E5A50",
"3 	c #5E5048",
"4 	c #524944",
"5 	c #4E4743",
"6 	c #4F4742",
"7 	c #534943",
"8 	c #574B45",
"9 	c #5B4E46",
"0 	c #5F5048",
"a 	c #64554B",
"b 	c #6E5B4F",
"c 	c #6E5C4E",
"d 	c #69584D",
"e 	c #68574C",
"f 	c #64544A",
"g 	c #594D46",
"h 	c #464341",
"i 	c #393A3B",
"j 	c #3C3A3A",
"k 	c #4A4340",
"l 	c #5F5049",
"m 	c #776155",
"n 	c #876B5D",
"o 	c #8F7161",
"p 	c #8B6F5F",
"q 	c #7A6255",
"r 	c #6A584D",
"s 	c #63534A",
"t 	c #65554A",
"u 	c #6B594D",
"v 	c #715D50",
"w 	c #766153",
"x 	c #7B6455",
"y 	c #7E6657",
"z 	c #7E6757",
"A 	c #7F6756",
"B 	c #7E6656",
"C 	c #705D50",
"D 	c #4B4440",
"E 	c #555453",
"F 	c #544843",
"G 	c #755F53",
"H 	c #907162",
"I 	c #957565",
"J 	c #957664",
"K 	c #8F7261",
"L 	c #83695A",
"M 	c #786254",
"N 	c #796254",
"O 	c #7D6656",
"P 	c #7F6757",
"Q 	c #816858",
"R 	c #816958",
"S 	c #836A59",
"T 	c #796353",
"U 	c #564B44",
"V 	c #454342",
"W 	c #474748",
"X 	c #535353",
"Y 	c #605652",
"Z 	c #755E53",
"` 	c #997867",
" .	c #977766",
"..	c #927363",
"+.	c #8C705F",
"@.	c #876C5C",
"#.	c #826959",
"$.	c #816959",
"%.	c #826A58",
"&.	c #816857",
"*.	c #806757",
"=.	c #806858",
"-.	c #7D6556",
";.	c #6E5B4E",
">.	c #564C48",
",.	c #444444",
"'.	c #403D3C",
").	c #6B574E",
"!.	c #937363",
"~.	c #977666",
"{.	c #957564",
"].	c #8E7161",
"^.	c #866B5B",
"/.	c #7B6555",
"(.	c #7C6555",
"_.	c #7E6756",
":.	c #64544B",
"<.	c #45403E",
"[.	c #37393A",
"}.	c #474849",
"|.	c #4D4542",
"1.	c #745D52",
"2.	c #9A7967",
"3.	c #987867",
"4.	c #907261",
"5.	c #846A5A",
"6.	c #796354",
"7.	c #786354",
"8.	c #705C50",
"9.	c #584B45",
"0.	c #43403F",
"a.	c #4E4A48",
"b.	c #67564E",
"c.	c #83685A",
"d.	c #997866",
"e.	c #957665",
"f.	c #8A6F5E",
"g.	c #7C6456",
"h.	c #6F5C4F",
"i.	c #5B4E45",
"j.	c #756052",
"k.	c #806857",
"l.	c #69574C",
"m.	c #4A4441",
"n.	c #45484B",
"o.	c #222E33",
"p.	c #4F4541",
"q.	c #7D6457",
"r.	c #947564",
"s.	c #8E7160",
"t.	c #856B5A",
"u.	c #745E51",
"v.	c #66564C",
"w.	c #625248",
"x.	c #594A40",
"y.	c #655346",
"z.	c #776152",
"A.	c #836A5A",
"B.	c #745F51",
"C.	c #4C443F",
"D.	c #3F4446",
"E.	c #3D3B3A",
"F.	c #876C5D",
"G.	c #937463",
"H.	c #876D5C",
"I.	c #68564C",
"J.	c #4D4540",
"K.	c #45413D",
"L.	c #53463E",
"M.	c #664F41",
"N.	c #735B4A",
"O.	c #7B6353",
"P.	c #846B59",
"Q.	c #735E51",
"R.	c #46413E",
"S.	c #313B3E",
"T.	c #5E4F48",
"U.	c #83685B",
"V.	c #917262",
"W.	c #8A6E5D",
"X.	c #766053",
"Y.	c #625249",
"Z.	c #473F3A",
"`.	c #5D493E",
" +	c #6D5241",
".+	c #775C4A",
"++	c #7C6453",
"@+	c #796355",
"#+	c #826958",
"$+	c #64534A",
"%+	c #514843",
"&+	c #544944",
"*+	c #776153",
"=+	c #65544A",
"-+	c #4C423E",
";+	c #604B3F",
">+	c #6F5442",
",+	c #725644",
"'+	c #765C4B",
")+	c #7C6353",
"!+	c #7D6657",
"~+	c #745F52",
"{+	c #615248",
"]+	c #6C5A4E",
"^+	c #45403D",
"/+	c #383939",
"(+	c #3C3C3D",
"_+	c #564B45",
":+	c #745E52",
"<+	c #806758",
"[+	c #725B4D",
"}+	c #685042",
"|+	c #6A4F3E",
"1+	c #725745",
"2+	c #7A6050",
"3+	c #7D6555",
"4+	c #7F6657",
"5+	c #4C4440",
"6+	c #594D45",
"7+	c #766152",
"8+	c #796252",
"9+	c #7E6555",
"0+	c #766052",
"a+	c #5F5047",
"b+	c #413F3D",
"c+	c #504843",
"d+	c #66554C",
"e+	c #7E6655",
"f+	c #7A6151",
"g+	c #775D4B",
"h+	c #745948",
"i+	c #775D4D",
"j+	c #44403D",
"k+	c #43403D",
"l+	c #5E5147",
"m+	c #6E5849",
"n+	c #755D4D",
"o+	c #7B6151",
"p+	c #7F6656",
"q+	c #7C6455",
"r+	c #49433F",
"s+	c #283135",
"t+	c #3E3C3B",
"u+	c #4C4540",
"v+	c #625349",
"w+	c #7D6454",
"x+	c #7C6454",
"y+	c #2D3437",
"z+	c #433F3C",
"A+	c #634F41",
"B+	c #705847",
"C+	c #785E4E",
"D+	c #6C5A4D",
"E+	c #433F3D",
"F+	c #725E50",
"G+	c #43403E",
"H+	c #223035",
"I+	c #604C3F",
"J+	c #6F5646",
"K+	c #785E4D",
"L+	c #293135",
"M+	c #2B3336",
"N+	c #48423F",
"O+	c #7D6655",
"P+	c #584A41",
"Q+	c #4B413A",
"R+	c #54463E",
"S+	c #665041",
"T+	c #705746",
"U+	c #775E4D",
"V+	c #755F52",
"W+	c #5F5148",
"X+	c #293235",
"Y+	c #796151",
"Z+	c #6F5645",
"`+	c #6C5240",
" @	c #6D5342",
".@	c #6F5543",
"+@	c #735947",
"@@	c #7A6254",
"#@	c #6A564B",
"$@	c #504641",
"%@	c #47423E",
"&@	c #7D6557",
"*@	c #7F6755",
"=@	c #7B6251",
"-@	c #745946",
";@	c #725542",
">@	c #725744",
",@	c #745A49",
"'@	c #735C4E",
")@	c #5E4D45",
"!@	c #463F3D",
"~@	c #3B3939",
"{@	c #534944",
"]@	c #65564B",
"^@	c #574A45",
"/@	c #806756",
"(@	c #7A6251",
"_@	c #725847",
":@	c #725846",
"<@	c #785F4E",
"[@	c #775F51",
"}@	c #6C5449",
"|@	c #564741",
"1@	c #403C3B",
"2@	c #373838",
"3@	c #393A3A",
"4@	c #5C4F47",
"5@	c #776253",
"6@	c #745D4E",
"7@	c #7D6453",
"8@	c #755C4A",
"9@	c #775E4C",
"0@	c #7C6352",
"a@	c #775E51",
"b@	c #6F564B",
"c@	c #665047",
"d@	c #514440",
"e@	c #333538",
"f@	c #5D4F47",
"g@	c #423D3A",
"h@	c #6F5747",
"i@	c #795F4E",
"j@	c #765E51",
"k@	c #70584C",
"l@	c #675148",
"m@	c #5A4943",
"n@	c #48403D",
"o@	c #45413E",
"p@	c #5E5148",
"q@	c #836958",
"r@	c #7A6354",
"s@	c #675448",
"t@	c #56463D",
"u@	c #71584A",
"v@	c #79604F",
"w@	c #7C6554",
"x@	c #765F51",
"y@	c #6F584B",
"z@	c #6A5348",
"A@	c #5F4C44",
"B@	c #4C423F",
"C@	c #403D3D",
"D@	c #836A58",
"E@	c #7D6554",
"F@	c #745B4B",
"G@	c #7C6556",
"H@	c #695247",
"I@	c #695147",
"J@	c #644F46",
"K@	c #564742",
"L@	c #413D3C",
"M@	c #343638",
"N@	c #4E4541",
"O@	c #7C6452",
"P@	c #7B6150",
"Q@	c #7F6758",
"R@	c #6B5449",
"S@	c #665045",
"T@	c #624E45",
"U@	c #534641",
"V@	c #443E3D",
"W@	c #3A3A3A",
"X@	c #443F3D",
"Y@	c #615249",
"Z@	c #6D554A",
"`@	c #685147",
" #	c #634D44",
".#	c #554640",
"+#	c #443E3C",
"@#	c #373939",
"##	c #383839",
"$#	c #67564C",
"%#	c #7B6355",
"&#	c #745C4F",
"*#	c #6C5549",
"=#	c #695148",
"-#	c #654E45",
";#	c #5A4841",
">#	c #433D3C",
",#	c #38393A",
"'#	c #393939",
")#	c #4E4641",
"!#	c #786253",
"~#	c #735B4F",
"{#	c #675146",
"]#	c #634C44",
"^#	c #584640",
"/#	c #4A413E",
"(#	c #403F40",
"_#	c #3F4041",
":#	c #313537",
"<#	c #554A44",
"[#	c #6B594E",
"}#	c #7C6656",
"|#	c #7B6354",
"1#	c #654F45",
"2#	c #604B43",
"3#	c #55443F",
"4#	c #473E3B",
"5#	c #3D3C3B",
"6#	c #424242",
"7#	c #323538",
"8#	c #403D3B",
"9#	c #46413F",
"0#	c #5D5047",
"a#	c #6F5C50",
"b#	c #786052",
"c#	c #735B4E",
"d#	c #6B554A",
"e#	c #624D45",
"f#	c #594640",
"g#	c #50403C",
"h#	c #443C3B",
"i#	c #3B3A39",
"j#	c #263035",
"k#	c #1E2C33",
"l#	c #67564B",
"m#	c #68554B",
"n#	c #655348",
"o#	c #604E45",
"p#	c #584841",
"q#	c #50433E",
"r#	c #483E3B",
"s#	c #403939",
"t#	c #373839",
"u#	c #333738",
"v#	c #333739",
"w#	c #38383A",
"x#	c #3C3A3B",
"y#	c #413C3B",
"z#	c #473E3D",
"A#	c #4B413E",
"B#	c #4C413E",
"C#	c #413C3A",
"D#	c #3B3A3A",
"E#	c #3A3B3B",
"F#	c #3B3C3C",
"G#	c #3A3A3B",
"H#	c #3B393A",
"I#	c #3D3A3A",
"J#	c #3C3B3A",
"K#	c #3E3E3F",
"                                                                                          ",
"                                                                                          ",
"                                .                     + @ # #                             ",
"                            $ % & * = - ; > , ' ) ! ~ { ] ^ / ( _ :                       ",
"                        < [ } | 1 2 3 4 5 6 7 8 9 0 a b c d e f g h i                     ",
"                      j k l m n o p q r s t u v w x y z z A A B C D i                     ",
"                    E F G n H I J K L x M N x O P Q R R Q R R S T U V W                   ",
"                  X Y Z o `  ...+.@.#.Q $.S %.&.*.P P P P P P =.-.;.>.,.                  ",
"                  '.).!.~.{.].^.R P P =.z /.(._.P P P P P P P P =.Q :.<.[.                ",
"                }.|.1.2.3.4.5.=.P P P #.6.t e 7._.P P P P P P P =.#.8.9.0.                ",
"                a.b.c.d.e.f.z P B g.6./.h.] i.j._.k.P P P P P P P P x l.m.n.              ",
"              o.p.q.r.J s.t.z P x u.e v.w.x.y.z._.k.P P P P P P P P A.B.C.D.              ",
"              E.3 F.` G.H.=.P k.M I.J.K.L.M.N.O.B P P Q =.P P P P P P.Q.R.S.              ",
"              E.T.U.V.W.#.P P =.X.Y.& Z.`. +.+++P P (.w @+Q k.P P P #+N $+%+              ",
"              ' &+X.#.P P P P k.*+=+-+;+>+,+'+)+z !+~+{+]+=.A P P P P Q P e ^+/+          ",
"              (+_+:+<+P P P P P O.[+}+|+1+2+3+4+*.-.h.5+6+7+8+)+9+P P =.Q 0+a+^+          ",
"            b+c+d+M *.P P P P P e+f+g+h+i+9+=.k.k.3+b j+k+l+m+n+o+p+P *.P q+r r+s+        ",
"          t+u+v+0+B k.P P P P P A 3+w+O.x+p+P P *.3+b ^+y+z+A+B+C+B P *.*.O D+r+s+        ",
"          E+9 F+B k.P P P P P P P P P P P P P *.*.(.b G+H+/+I+J+K+B P *.k.(.d r+L+        ",
"        M+N+e /.k.*.P P P =.Q P P P P P P P P P P O+F+P+Q+R+S+T+U+B =.k.p+V+W+^+          ",
"        X+r+u O k.*.P P P y B P P P P P P P P P P _.Y+Z+`+ @.@+@U+B =.P @@#@$@*           ",
"          %@f M k.k.P P (.~+h.&@=.P P P P P P P P *@=@-@;@>@,@i+o+B =.q+'@)@!@~@          ",
"          '.{@]+z =.P P 6.]@^@6./@P P P P P P P P A (@_@.@:@<@)+9+P -.[@}@|@1@2@          ",
"            3@4@5@z k.P M 9 & 6@7@9+P P P P P P P P x+U+8@9@0@B P -.a@b@c@d@/+            ",
"            e@6 u q+Q P M f@g@h@i@)+z P P P P P P P B x+O.++B k.B j@k@l@m@n@.             ",
"              o@p@7.q@P r@s@t@u@v@++z P P P P P P P P =.=.=.P w@x@y@z@A@B@C@              ",
"              + g *+D@P E@F@.@w+k.P P P P P P P P P P P P P G@[+H@I@J@K@L@;               ",
"              M@N@v Q P B O@P@P Q@P P P P P P P P P P P *.3+'@R@S@T@U@V@W@                ",
"                X@Y@5@%.#+k.P P P P P P P P P P P P P y q+j@Z@`@ #.#+#@#                  ",
"                ##N+$#R =.*.=.P P P P P P P P P P P y %#&#*#=#-#;#>#,#                    ",
"                  '#)#Y@b !#P #.#+k.P P P P P P =.y @@~#Z@{#]#^#/#(#_#                    ",
"                    :## <#s [#8.5@}#P Q #+R Q <+4+|#&#R@1#2#3#4#5#6#                      ",
"                      7#8#<.9#^ 0#a#M -.y y O %#b#c#d#e#f#g#h#i#/+                        ",
"                            j#k#o@_+0#v+t l#I.m#n#o#p#q#r#s#'#t#                          ",
"                                  u#v#w#x#y#z#A#B#n@C#D#E#F#F#                            ",
"                                          G#H#I#E.J## K#                                  ",
"                                                                                          ",
"                                                                                          "};
