/* XPM */
static xpm_row_t const cannonball_xpm[] = {
"15 13 38 1",
" 	c None",
".	c #070505",
"+	c #151515",
"@	c #1B1B1B",
"#	c #161616",
"$	c #161515",
"%	c #101011",
"&	c #040303",
"*	c #030202",
"=	c #181818",
"-	c #242424",
";	c #272727",
">	c #1D1D1D",
",	c #100C0B",
"'	c #100F0F",
")	c #1E1E1E",
"!	c #1B1B1C",
"~	c #020101",
"{	c #262626",
"]	c #0E0E0E",
"^	c #1F1F1F",
"/	c #222222",
"(	c #000000",
"_	c #232323",
":	c #111010",
"<	c #0F0E0E",
"[	c #121212",
"}	c #090908",
"|	c #212121",
"1	c #0F0D0E",
"2	c #202020",
"3	c #1A1A1A",
"4	c #1C1C1C",
"5	c #010101",
"6	c #141414",
"7	c #171717",
"8	c #131212",
"9	c #0A0A0B",
"    .+@#$%&    ",
"  *=-;;;;;;>,  ",
" '-;;;;;;;;;>  ",
" );;;;;;;;;;;! ",
"~{;;;;;;;;;;;;]",
"];;;;;;;;{^;;;#",
"];;;;;;;;/(_;;:",
"<;;;;;;;;;{;;;[",
"};;;;;;;|;;;;;1",
" 2;;;;;;-;;;;3 ",
" '|;;;;;;;;;3  ",
"   #_;;;;;;4   ",
"    56#7879    "};
