/* XPM */
static xpm_row_t const crosshair_xpm[] = {
"20 21 12 1",
" 	c None",
".	c #8F8F8F",
"+	c #929292",
"@	c #919191",
"#	c #8B8B8B",
"$	c #7E7E7E",
"%	c #7C7C7C",
"&	c #484848",
"*	c #5F5F5F",
"=	c #7D7D7D",
"-	c #7A7A7A",
";	c #898989",
"                    ",
"         .          ",
"         +          ",
"         @          ",
"         @          ",
"         @          ",
"         +          ",
"         #          ",
"                    ",
"                    ",
" $%%%%$&    *=%%%%- ",
"                    ",
"                    ",
"         ;          ",
"         +          ",
"         @          ",
"         @          ",
"         @          ",
"         +          ",
"         ;          ",
"                    "};
