/* XPM */
static xpm_row_t const newcrosshair_xpm[] = {
"20 21 2 1",
" 	c None",
".	c #33FF55",
"         ..         ",
"         ..         ",
"         ..         ",
"         ..         ",
"         ..         ",
"         ..         ",
"         ..         ",
"         ..         ",
"         ..         ",
"                    ",
"........    ........",
"                    ",
"         ..         ",
"         ..         ",
"         ..         ",
"         ..         ",
"         ..         ",
"         ..         ",
"         ..         ",
"         ..         ",
"         ..         "};
