/* XPM */
static xpm_row_t const rocket_xpm[] = {
"15 13 5 1",
" 	c None",
".	c #161616",
"+	c #272727",
"@	c #262626",
"#	c #1F1F1F",
"    ........   ",
"  ...++++++..  ",
" ..+++++++++.. ",
"..+++++++++++..",
".+++++++++++++.",
".++++++++@#+++.",
".++++++++#.#++.",
".+++++++++@+++.",
".+++++++#+++++.",
"..++++++.++++..",
" ..+++++++++.. ",
"  ...++++++..  ",
"    ........   "};
