/* XPM */
static xpm_row_t const ship_xpm[] = {
"42 37 479 2",
"  	c None",
". 	c #88888B",
"+ 	c #3E3E58",
"@ 	c #1A1E52",
"# 	c #24264A",
"$ 	c #212240",
"% 	c #000016",
"& 	c #4A4A5B",
"* 	c #2B2D60",
"= 	c #1D2168",
"- 	c #1F2365",
"; 	c #1A1D4E",
"> 	c #181C4D",
", 	c #000040",
"' 	c #70707A",
") 	c #878798",
"! 	c #393B5E",
"~ 	c #000050",
"{ 	c #000F72",
"] 	c #010F72",
"^ 	c #000051",
"/ 	c #000043",
"( 	c #5A5B79",
"_ 	c #3B3B3A",
": 	c #6E6E6E",
"< 	c #AEAEAE",
"[ 	c #D0D0D0",
"} 	c #EAEAEB",
"| 	c #A2A2AC",
"1 	c #9E9EAD",
"2 	c #666790",
"3 	c #65688F",
"4 	c #A4A4AF",
"5 	c #888996",
"6 	c #CACACF",
"7 	c #CFCFCE",
"8 	c #626262",
"9 	c #6F6F6F",
"0 	c #414141",
"a 	c #B7B7B7",
"b 	c #F5F5F5",
"c 	c #F8F8F8",
"d 	c #E8E8E8",
"e 	c #EFEFEF",
"f 	c #DADADF",
"g 	c #D1D1D0",
"h 	c #EDEDED",
"i 	c #E0E0E0",
"j 	c #717171",
"k 	c #686868",
"l 	c #2E2E2E",
"m 	c #5C5C5C",
"n 	c #BCBCBC",
"o 	c #F3F3F3",
"p 	c #F6F6F6",
"q 	c #D4D4D4",
"r 	c #DEDEDE",
"s 	c #F2F2F2",
"t 	c #D7D7D7",
"u 	c #ECECEC",
"v 	c #B3B3B3",
"w 	c #8E8E8E",
"x 	c #9C9C9C",
"y 	c #848484",
"z 	c #A4A4A4",
"A 	c #E9E9E9",
"B 	c #CFCFCF",
"C 	c #E3E3E3",
"D 	c #C1C1C1",
"E 	c #DADADA",
"F 	c #EBEBEB",
"G 	c #F0F0F0",
"H 	c #DDDDDD",
"I 	c #F1F1F1",
"J 	c #E6E6E6",
"K 	c #B5B5B5",
"L 	c #464646",
"M 	c #ACACAC",
"N 	c #EAEAEA",
"O 	c #C9C9C9",
"P 	c #D1D1D1",
"Q 	c #ADADAD",
"R 	c #444444",
"S 	c #858585",
"T 	c #D5D5D5",
"U 	c #E2E2E2",
"V 	c #F4F4F4",
"W 	c #A0A0A0",
"X 	c #6A6A6A",
"Y 	c #D8D8D8",
"Z 	c #878787",
"` 	c #898989",
" .	c #F1F1F2",
"..	c #F5F5F6",
"+.	c #B9B9B9",
"@.	c #F9F9F9",
"#.	c #AFAFAF",
"$.	c #CCCCCC",
"%.	c #F8F9F9",
"&.	c #CBCBCB",
"*.	c #C2C2C2",
"=.	c #333332",
"-.	c #DCDCDC",
";.	c #FBFBFC",
">.	c #F6F6F0",
",.	c #E3E3E2",
"'.	c #DBDCE0",
").	c #D6D6D6",
"!.	c #F7F7F7",
"~.	c #F0F1F3",
"{.	c #EAE9EB",
"].	c #F3E9E9",
"^.	c #F7F1F1",
"/.	c #ECEBEB",
"(.	c #CDCDCE",
"_.	c #89898B",
":.	c #1D1E2A",
"<.	c #353535",
"[.	c #F2F3F3",
"}.	c #E9E1DE",
"|.	c #EFE2C5",
"1.	c #BCBAAD",
"2.	c #D3D4D9",
"3.	c #CBCBD4",
"4.	c #A794A7",
"5.	c #E3AFB3",
"6.	c #F6DBDB",
"7.	c #F8F7F8",
"8.	c #F6F6F8",
"9.	c #F6F6F7",
"0.	c #C3C3C3",
"a.	c #EDE2E3",
"b.	c #ECE2E2",
"c.	c #E8EAE9",
"d.	c #B2B3BC",
"e.	c #61616A",
"f.	c #60605D",
"g.	c #646464",
"h.	c #ABABAB",
"i.	c #D8D8D9",
"j.	c #DEDFE0",
"k.	c #D8C5B4",
"l.	c #E4CAA6",
"m.	c #B2AEAF",
"n.	c #F0F0F2",
"o.	c #D9D9D9",
"p.	c #F6F5F5",
"q.	c #CDB7C1",
"r.	c #AB4F73",
"s.	c #E59BA1",
"t.	c #F8D9DA",
"u.	c #F8F7F5",
"v.	c #F9F8EE",
"w.	c #F9F8F4",
"x.	c #F3F3F2",
"y.	c #D8D9D9",
"z.	c #AF8F98",
"A.	c #E3D0D3",
"B.	c #F8FAFA",
"C.	c #C8C8CC",
"D.	c #9A9BA6",
"E.	c #959598",
"F.	c #5E5E5C",
"G.	c #757575",
"H.	c #B2B2B2",
"I.	c #C5C5C5",
"J.	c #C7C7C8",
"K.	c #D3CEBE",
"L.	c #D4CDBC",
"M.	c #C0C0C7",
"N.	c #EAEAEC",
"O.	c #BFBFBF",
"P.	c #EEEEEE",
"Q.	c #EEEFEF",
"R.	c #EAD6D7",
"S.	c #E5BBBD",
"T.	c #EAC5C6",
"U.	c #EADADC",
"V.	c #E9E8DF",
"W.	c #EDE7AF",
"X.	c #ECEAD5",
"Y.	c #B9B9BC",
"Z.	c #766B7F",
"`.	c #BBB6B9",
" +	c #C8C8C8",
".+	c #B9B9BA",
"++	c #9F9F9E",
"@+	c #545454",
"#+	c #7E7E7E",
"$+	c #BABABA",
"%+	c #C0C0BF",
"&+	c #C3C4C2",
"*+	c #D1D1D2",
"=+	c #A1A1A1",
"-+	c #C6C6C6",
";+	c #D2D2D2",
">+	c #D5D3D3",
",+	c #D6D2D1",
"'+	c #D4D0D0",
")+	c #CDCCCD",
"!+	c #C4C3BE",
"~+	c #C5C19D",
"{+	c #BDBBAC",
"]+	c #A2A2A2",
"^+	c #AAAAAC",
"/+	c #ADAFB3",
"(+	c #BBBDBD",
"_+	c #CACAC9",
":+	c #C4C4C3",
"<+	c #B8B8B8",
"[+	c #B2B2B4",
"}+	c #5F5F5F",
"|+	c #000000",
"1+	c #484848",
"2+	c #9D9D9D",
"3+	c #C4C4C4",
"4+	c #C0C0C1",
"5+	c #BEBEBE",
"6+	c #AEAFAF",
"7+	c #ADAEAE",
"8+	c #ACAEAE",
"9+	c #9E9F9F",
"0+	c #C3C3C2",
"a+	c #A9A9A8",
"b+	c #C7C7C6",
"c+	c #AAAAAD",
"d+	c #A4A4AD",
"e+	c #666684",
"f+	c #83838E",
"g+	c #B1B1B3",
"h+	c #9D9D9C",
"i+	c #3D3D3D",
"j+	c #1D1D1D",
"k+	c #2B2B2B",
"l+	c #7C7C7C",
"m+	c #BEBEBD",
"n+	c #C0BFBF",
"o+	c #A5A5A5",
"p+	c #C0C0C0",
"q+	c #BDBDBE",
"r+	c #A7A7AB",
"s+	c #9A9A9E",
"t+	c #8D8D95",
"u+	c #87889B",
"v+	c #8C8DA0",
"w+	c #B1B1B4",
"x+	c #0F0F0F",
"y+	c #323232",
"z+	c #808080",
"A+	c #BBBBBB",
"B+	c #B6B7B7",
"C+	c #A9A9A9",
"D+	c #B0B0B0",
"E+	c #A8A8A8",
"F+	c #828282",
"G+	c #9E9EAA",
"H+	c #9D9EA8",
"I+	c #BDBEBF",
"J+	c #BFC1C2",
"K+	c #C2C3C2",
"L+	c #222222",
"M+	c #1B1B1B",
"N+	c #AAAAAA",
"O+	c #909090",
"P+	c #C7C7C7",
"Q+	c #C5C2C2",
"R+	c #BCADAE",
"S+	c #B5B2B2",
"T+	c #BEBFBF",
"U+	c #060606",
"V+	c #B6B6B5",
"W+	c #B19D9D",
"X+	c #B8ACAC",
"Y+	c #AFB1B1",
"Z+	c #B6B6B6",
"`+	c #C2C4C4",
" @	c #C3BDBD",
".@	c #B78585",
"+@	c #A99E9F",
"@@	c #9B9D9D",
"#@	c #808087",
"$@	c #8F8F96",
"%@	c #9D9DA0",
"&@	c #978B8B",
"*@	c #B6B1B1",
"=@	c #B3ACAC",
"-@	c #BBB4B4",
";@	c #CECECE",
">@	c #BBBCBB",
",@	c #A6A5A5",
"'@	c #978A8E",
")@	c #706C74",
"!@	c #474A53",
"~@	c #C8C688",
"{@	c #9D9B63",
"]@	c #5E5F57",
"^@	c #8F9394",
"/@	c #8B6F71",
"(@	c #977D80",
"_@	c #BDBEBE",
":@	c #E4E4E4",
"<@	c #9F9F9F",
"[@	c #8D8D8E",
"}@	c #575851",
"|@	c #9C9C64",
"1@	c #C3C187",
"2@	c #EBE752",
"3@	c #EAE650",
"4@	c #00002A",
"5@	c #8E8B3B",
"6@	c #817F34",
"7@	c #82817E",
"8@	c #8A8A8A",
"9@	c #8B8B8B",
"0@	c #C1C1C0",
"a@	c #AFAFAE",
"b@	c #B0B0AE",
"c@	c #B1B1AF",
"d@	c #949494",
"e@	c #939394",
"f@	c #919191",
"g@	c #767573",
"h@	c #242309",
"i@	c #21202E",
"j@	c #E6E24B",
"k@	c #DCD83F",
"l@	c #E7E34E",
"m@	c #D9D53C",
"n@	c #4F4E2F",
"o@	c #B3AF3C",
"p@	c #D0CD4B",
"q@	c #C1BE3D",
"r@	c #5A5700",
"s@	c #12121C",
"t@	c #5D5C44",
"u@	c #A9A65F",
"v@	c #B8B687",
"w@	c #A7A461",
"x@	c #5A5A47",
"y@	c #000005",
"z@	c #51501F",
"A@	c #A4A397",
"B@	c #AAA87D",
"C@	c #595827",
"D@	c #34342F",
"E@	c #D8D43D",
"F@	c #E8E44F",
"G@	c #EDE954",
"H@	c #DCD840",
"I@	c #C4C01C",
"J@	c #8C8A37",
"K@	c #B1AE3F",
"L@	c #B3B03E",
"M@	c #737139",
"N@	c #BCB842",
"O@	c #BDB92D",
"P@	c #56530D",
"Q@	c #191919",
"R@	c #94912B",
"S@	c #DCD742",
"T@	c #DED94F",
"U@	c #DEDA4F",
"V@	c #CDC82A",
"W@	c #6F6C00",
"X@	c #00002B",
"Y@	c #5A5819",
"Z@	c #BCB833",
"`@	c #B3B161",
" #	c #5F5E49",
".#	c #AAA83F",
"+#	c #B2AF3F",
"@#	c #878435",
"##	c #57562F",
"$#	c #A29E1F",
"%#	c #DDD83F",
"&#	c #E0DC45",
"*#	c #E0DC44",
"=#	c #D0CC38",
"-#	c #ACA937",
";#	c #A3A039",
">#	c #6D6B2B",
",#	c #2B291A",
"'#	c #00002C",
")#	c #373829",
"!#	c #B0AD39",
"~#	c #C3BF36",
"{#	c #7A772A",
"]#	c #9D9935",
"^#	c #C7C23E",
"/#	c #D3CE28",
"(#	c #D2CD25",
"_#	c #C8C32A",
":#	c #79762C",
"<#	c #6C692E",
"[#	c #C4C037",
"}#	c #B8B53E",
"|#	c #343200",
"1#	c #05061D",
"2#	c #35342D",
"3#	c #6E6C25",
"4#	c #A5A239",
"5#	c #A09D3D",
"6#	c #AEAA36",
"7#	c #E7E24D",
"8#	c #E6E24C",
"9#	c #D9D43B",
"0#	c #DFDA41",
"a#	c #7D7C2E",
"b#	c #0E0E1B",
"c#	c #000021",
"d#	c #0C0E20",
"e#	c #2A2A28",
"f#	c #262733",
"g#	c #41422C",
"h#	c #D7D238",
"i#	c #757326",
"j#	c #A3A13C",
"k#	c #DFDB44",
"l#	c #A9A428",
"m#	c #8E8A20",
"n#	c #181A2B",
"o#	c #353534",
"p#	c #0D0F22",
"q#	c #10111F",
"r#	c #7B7931",
"s#	c #9F9C38",
"t#	c #E0DB42",
"u#	c #D4D034",
"v#	c #D4CE31",
"w#	c #E8E550",
"x#	c #2B2B2A",
"y#	c #E6E148",
"z#	c #C8C338",
"A#	c #C0BC3E",
"B#	c #E1DD46",
"C#	c #D3CE32",
"D#	c #ABA723",
"E#	c #C5C136",
"F#	c #E6E249",
"G#	c #000026",
"H#	c #D0CB40",
"I#	c #BFBB48",
"J#	c #AFAC3C",
"K#	c #DDD847",
"L#	c #E1DD45",
"M#	c #D4CE32",
"N#	c #CECA33",
"O#	c #AEAB3A",
"P#	c #A6A343",
"Q#	c #5C5A36",
"R#	c #414034",
"S#	c #7B793B",
"T#	c #000001",
"U#	c #504E1E",
"V#	c #BCB93F",
"W#	c #E2DD45",
"X#	c #D4D032",
"Y#	c #AAA626",
"Z#	c #4A4919",
"`#	c #000004",
" $	c #2B2B33",
".$	c #333333",
"+$	c #313133",
"@$	c #292819",
"#$	c #E2DD46",
"$$	c #D5D033",
"%$	c #8F8B1C",
"&$	c #171414",
"*$	c #C2BE45",
"=$	c #D3CE30",
"-$	c #AAA526",
";$	c #E9E44C",
">$	c #DCD73E",
",$	c #D2CF4B",
"'$	c #E2DF4D",
")$	c #4F4F34",
"!$	c #717039",
"~$	c #575536",
"{$	c #C2BF48",
"                                                                                    ",
"                                    . + @ # $                                       ",
"                                  % & * = - ; > ,                                   ",
"                                ' ) ! ~ { ] ^ / (   _ :                             ",
"                              < [ } | 1 2 3 4 5 6 7 8 9                             ",
"                          0 a b c d [ e f f e g h i j k l                           ",
"                        m n o p o q r s o o s r t u v w x y                         ",
"                      z [ s p b A B C D E E D C B F G H I J K                       ",
"                  L M N p b b h O G H w P P w H G O h p p p F Q R                   ",
"                S T s p b b b U O V W X Y Y X W V O U b b b V e t Z                 ",
"              ` Y r  ...o b G +.@.N #.$.@.%.&.#.N @.+.G G e F r U *.=.              ",
"            Z -.;.@.>.,.'.b Y ).!.G J ~.{.].^.J G !.).Y /.r A h F (._.:.            ",
"          <.< I [.}.|.1.2.F *.o p p !.3.4.5.6.7.8.9.V 0.a.b.c.b c 9.d.e.f.          ",
"          g.h.i.j.k.l.m.n.P o.!.!.c p.q.r.s.t.u.v.w.x.y.z.A.B.F C C.D.E.F.          ",
"          G.H.I.J.K.L.M.N.D O.P.e Q.P.R.S.T.U.V.W.X.B Y.Z.`.r P  +.++.++@+          ",
"          #+$+I.D %+&+I.*+n =+-+;+P ;+>+,+'+)+!+~+{+]+^+/+(+_+:+<+<+[+Q }+|+        ",
"        |+1+2+3+O.< 4+-+:+D ]+z I.3+5+6+7+8+9+K 0+a+2+5+b+D c+d+e+f+g+h+i+j+        ",
"        k+|+l+D *.m+n+K O.0.$+o+3+p+H.a +.$+W w q+M 2+0.r+s+t+u+v+w+p+#+x+y+        ",
"        y+|+z+0.I.A+B+p+0.0.*.C+*.O.D+O.3+I.E+F+A+M +.3+G+H+*.I+J+K+O.y |+L+        ",
"        M+|+Q t 3+O.5+p+n 0.0.n N+-+<+H.3+p+O+E+P+N+n 0.0.0.3+Q+R+S+T+S   U+        ",
"            ` I.P+V+W+X+Y+D 0.n h. +p+H.O.M O+Z+-+C+P 3+0.0.`+ @.@+@@@:             ",
"              #@$@%@&@*@=@-@3+D K  +$.#.v =+=+3+Z++.;@0.3+-+>@,@'@)@!@              ",
"                ~@{@]@^@/@(@_@-+n $+T -+Q M <+D +.:@;@I.Z+<@[@}@|@1@                ",
"              2@3@    4@5@6@7@w 8@9@n 0@a@b@c@W d@#.e@f@g@h@i@    j@k@              ",
"              l@m@    n@o@p@q@r@|+s@t@u@v@v@w@x@y@|+z@A@B@  C@D@  E@F@              ",
"            G@H@I@  J@K@L@M@N@O@P@Q@R@S@T@U@V@W@X@Y@Z@`@ #.#+#@###$#%#&#            ",
"            F@*#=#-#;#>#,#'#)#!#~#{#]#^#/#(#_#:#<#[#}#|#1#2#3#4#5#6#*#7#            ",
"          8#9#0#  a#b#c#d#e#f#g#  h#i#j#k#h#l#m#h#    n#o#p#c#q#r#s#t#u#v#          ",
"          w#      %     x#        y#z#A#B#C#D#E#F#              G#      H#          ",
"        I#                          J#K#L#M#N#O#                        P#Q#        ",
"      R#S#                        T#U#V#W#X#Y#Z#`#                         $.$      ",
"      +$                            @$4##$$$%$&$                            .$      ",
"    .$.$                              *$*#=$-$                              .$.$    ",
"                                        ;$>$                                        ",
"                                        ,$'$                                        ",
"                                        )$!$                                        ",
"                                      ~${${$~$                                      "};
